# xmcd CD database file
#
# Track frame offsets:
#	180
#	18120
#	38980
#	60160
#	102555
#	142665
#	171650
#	190730
#	214020
#	235230
#
# Disc length: 3648 seconds
#
# Revision: 0
# Processed by: cddbd v1.4PL0 Copyright (c) Steve Scherf et al.
# Submitted via: CDex 1.50beta10
#
DISCID=800e3e0a
DTITLE=Various Artist - Sentimental Journey Jazz -- My First Jazz
DYEAR=1997
DGENRE=Jazz
TTITLE0=Elvira Madigan -- Niels.H.Q.Pederson
TTITLE1=A Song for You -- Kimito Itoh
TTITLE2=In A Sentimental Mood -- Stephane Grappelli
TTITLE3=Summer Knows Phil woods,Vincent Herring, Antonio Hart
TTITLE4=A second Chance -- Fred Karlin
TTITLE5=I'll Wait For You -- McCoy Tyner
TTITLE6=Lullaby Of The Leaves -- Niels.H.Q.Pederson
TTITLE7=What Are You Doing The Rest Of Your Life -- Kimiko Itoh
TTITLE8=Willow Weep For Me -- Kenny Drew
TTITLE9=Lose Of Love -- McCoy Tyner
EXTD=YEAR: 1997
EXTT0=
EXTT1=
EXTT2=
EXTT3=
EXTT4=
EXTT5=
EXTT6=
EXTT7=
EXTT8=
EXTT9=
PLAYORDER=
